<?xml version="1.0" encoding="utf-8"?>
<?xml-stylesheet type="text/xsl" href="rss1.xsl"?>
<rss version="2.0" xmlns:atom="http://www.w3.org/2005/Atom" xmlns:content="http://purl.org/rss/1.0/modules/content/" xmlns:dc="http://purl.org/dc/elements/1.1/" xmlns:media="http://search.yahoo.com/mrss/">
<channel>
 <title>Getty</title>
 <link>http://www.gettyimg.com/</link>
 <atom:link href="http://www.gettyimg.com/" rel="self" type="application/rss+xml" />

 
                <item>
                <title><![CDATA[【Bugs!】Dreamcatcher - «Vision» [Bugs! 2160p]]]></title>
                <link><![CDATA[https://sharemania.us/threads/dreamcatcher-%C2%ABvision%C2%BB-bugs-2160p.228153/]]></link>
                <description><![CDATA[<article>
<blockquote class="messageText SelectQuoteContainer ugc baseHtml">
<div style="text-align: center"><img src="https://i.imgur.com/kcFnphB.jpg" class="bbCodeImage LbImage" alt="[​IMG]" data-url="https://i.imgur.com/kcFnphB.jpg" style=""> <br>
<br>
<img src="https://i.imgur.com/HsnF0E8.jpg" class="bbCodeImage LbImage" alt="[​IMG]" data-url="https://i.imgur.com/HsnF0E8.jpg" style=""> <br>
<div class="ToggleTriggerAnchor bbCodeSpoilerContainer">
<button type="button" class="button bbCodeSpoilerButton ToggleTrigger Tooltip JsOnly" data-target="> .SpoilerTarget"><span>Spoiler: <span class="SpoilerTitle">Media Info</span></span></button>
<div class="SpoilerTarget bbCodeSpoilerText">
<div class="bbCodeBlock bbCodeQuote">
<aside>
<blockquote class="quoteContainer"><div class="quote">General<br>
Complete name : C:\PVs\Dreamcatcher - VISION (Bugs!).mp4<br>
Format : MPEG-4<br>
Format profile : Base Media / Version 2<br>
Codec ID : mp42 (mp42/mp41)<br>
File size : 1.78 GiB<br>
Duration : 3 min 10 s<br>
Overall bit rate mode : Variable<br>
Overall bit rate : 80.2 Mb/s<br>
Frame rate : 23.976 FPS<br>
Encoded date : 2022-10-10 14:43:16 UTC<br>
Tagged date : 2022-10-10 14:43:30 UTC<br>
TIM : 00:00:00:00<br>
TSC : 24000<br>
TSZ : 1001<br>
<br>
Video<br>
ID : 1<br>
Format : AVC<br>
Format/Info : Advanced Video Codec<br>
Format profile : Main@L5.1<br>
Format settings : CABAC / 4 Ref Frames<br>
Format settings, CABAC : Yes<br>
Format settings, Reference frames : 4 frames<br>
Codec ID: avc1<br>
Codec ID/Info : Advanced Video Coding<br>
Duration : 3 min 10 s<br>
Bit rate : 79.9 Mb/s<br>
Width : 3 840 pixels<br>
Height : 2 160 pixels<br>
Display aspect ratio : 16:9<br>
Frame rate mode : Constant<br>
Frame rate : 23.976 (24000/1001) FPS<br>
Color space : YUV<br>
Chroma subsampling : 4:2:0<br>
Bit depth : 8 bits<br>
Scan type : Progressive<br>
Bits/(Pixel*Frame) : 0.402<br>
Stream size : 1.77 GiB (100%)<br>
Language : English<br>
Encoded date : 2022-10-10 14:43:16 UTC<br>
Tagged date : 2022-10-10 14:43:16 UTC<br>
Color range : Limited<br>
Color primaries : BT.709<br>
Transfer characteristics : BT.709<br>
Matrix coefficients : BT.709<br>
Codec configuration box : avcC<br>
<br>
Audio<br>
ID : 2<br>
Format : AAC LC<br>
Format/Info : Advanced Audio Codec Low Complexity<br>
Codec ID : mp4a-40-2<br>
Duration : 3 min 10 s<br>
Source duration : 3 min 10 s<br>
Bit rate mode : Variable<br>
Bit rate : 317 kb/s<br>
Maximum bit rate : 378 kb/s<br>
Channel(s) : 2 channels<br>
Channel layout : L R<br>
Sampling rate : 48.0 kHz<br>
Frame rate : 46.875 FPS (1024 SPF)<br>
Compression mode : Lossy<br>
Stream size : 7.19 MiB (0%)<br>
Source stream size : 7.20 MiB (0%)<br>
Language : English<br>
Encoded date : 2022-10-10 14:43:16 UTC<br>
Tagged date : 2022-10-10 14:43:16 UTC</div><div class="quoteExpand">Click to expand...</div></blockquote>
</aside>
</div></div>
</div><b><span style="font-family: 'Book Antiqua'"><span style="font-size: 26px">
<div class="ToggleTriggerAnchor bbCodeSpoilerContainer">
<button type="button" class="button bbCodeSpoilerButton ToggleTrigger Tooltip JsOnly" data-target="> .SpoilerTarget"><span>Spoiler: <span class="SpoilerTitle">Credits</span></span></button>
<div class="SpoilerTarget bbCodeSpoilerText"><span style="color: rgb(179, 179, 0)">Original Uploader</span> - <span style="color: rgb(0, 255, 0)">Max575</span> from <span style="color: rgb(0, 128, 255)">Jpopsuki</span></div>
</div></span></span></b><span style="font-family: 'Book Antiqua'"><span style="font-size: 15px"><span data-s9e-mediaembed="youtube" style="display:inline-block;width:100%;max-width:640px"><span style="display:block;overflow:hidden;position:relative;padding-bottom:56.25%"><iframe allowfullscreen="" loading="lazy" scrolling="no" style="background:url(https://i.ytimg.com/vi/jKrJBVLnRiM/hqdefault.jpg) 50% 50% / cover;border:0;height:100%;left:0;position:absolute;width:100%" src="https://www.youtube.com/embed/jKrJBVLnRiM"></iframe></span></span><br>
<br>
<div class="ToggleTriggerAnchor bbCodeSpoilerContainer">
<button type="button" class="button bbCodeSpoilerButton ToggleTrigger Tooltip JsOnly" data-target="> .SpoilerTarget"><span>Spoiler: <span class="SpoilerTitle">Google Drive</span></span></button>
<div class="SpoilerTarget bbCodeSpoilerText"><a href="https://drive.google.com/drive/folders/1QOLNFbe_xh-SWp4iLHIxT5vWQNFQ-aoH?usp=sharing" target="_blank" class="externalLink" rel="nofollow">https://drive.google.com/drive/folders/1QOLNFbe_xh-SWp4iLHIxT5vWQNFQ-aoH?usp=sharing</a></div>
</div></span></span>​</div>
<div class="messageTextEndMarker">&nbsp;</div>
</blockquote>
</article>]]></description>
                <author><![CDATA[WithLoveSNSD]]></author>
                </item>

                
                <item>
                <title><![CDATA[【Requests】[REQ AUD] - 6ix9ine Leyenda Viva]]></title>
                <link><![CDATA[https://sharemania.us/threads/6ix9ine-leyenda-viva.228152/]]></link>
                <description><![CDATA[<article>
<blockquote class="messageText SelectQuoteContainer ugc baseHtml">
<a href="https://www.qobuz.com/us-en/album/leyenda-viva-6ix9ine/hhy4jx225kh7b" target="_blank" class="externalLink" rel="nofollow">https://www.qobuz.com/us-en/album/leyenda-viva-6ix9ine/hhy4jx225kh7b</a><br>
Thanks in advance.
<div class="messageTextEndMarker">&nbsp;</div>
</blockquote>
</article>]]></description>
                <author><![CDATA[avatar_luffy]]></author>
                </item>

                </channel></rss>